<svg width="36" height="36" viewBox="0 0 36 36" fill="none" xmlns="http://www.w3.org/2000/svg">
<rect x="0.25" y="0.25" width="35.5" height="35.5" rx="1.75" fill="white" stroke="#F0F0F0" stroke-width="0.5"/>
<path d="M1 18C1 8.61116 8.61116 1 18 1C27.3888 1 35 8.61116 35 18C35 27.3888 27.3888 35 18 35C8.61116 35 1 27.3888 1 18Z" fill="white"/>
<path d="M18.0001 13.4818C19.3834 13.4818 20.3165 14.0793 20.8485 14.5786L22.9276 12.5487C21.6507 11.3618 19.9891 10.6334 18.0001 10.6334C15.1189 10.6334 12.6306 12.2868 11.4192 14.6932L13.8011 16.5431C14.3986 14.7669 16.052 13.4818 18.0001 13.4818Z" fill="#EA4335"/>
<path d="M25.072 18.1637C25.072 17.558 25.0229 17.116 24.9165 16.6577H18V19.3915H22.0598C21.978 20.0709 21.536 21.094 20.5538 21.7816L22.8784 23.5823C24.2698 22.2972 25.072 20.4065 25.072 18.1637Z" fill="#4285F4"/>
<path d="M13.8093 19.457C13.6538 18.9986 13.5637 18.5075 13.5637 18.0001C13.5637 17.4926 13.6538 17.0015 13.8011 16.5431L11.4192 14.6932C10.9199 15.6918 10.6334 16.8132 10.6334 18.0001C10.6334 19.1869 10.9199 20.3083 11.4192 21.3069L13.8093 19.457Z" fill="#FBBC05"/>
<path d="M18.0001 25.3667C19.9891 25.3667 21.6588 24.7119 22.8784 23.5823L20.5538 21.7816C19.9318 22.2154 19.0969 22.5182 18.0001 22.5182C16.052 22.5182 14.3986 21.2332 13.8093 19.457L11.4274 21.3068C12.6388 23.7133 15.1189 25.3667 18.0001 25.3667Z" fill="#34A853"/>
</svg>
